<svg width="512" height="512" viewBox="0 0 512 512" fill="none" xmlns="http://www.w3.org/2000/svg">
  <rect width="512" height="512" rx="64" fill="url(#gradient)"/>
  <defs>
    <linearGradient id="gradient" x1="0%" y1="0%" x2="100%" y2="100%">
      <stop offset="0%" style="stop-color:#8b5cf6"/>
      <stop offset="50%" style="stop-color:#a855f7"/>
      <stop offset="100%" style="stop-color:#ec4899"/>
    </linearGradient>
  </defs>
  
  <!-- Card Stack -->
  <rect x="120" y="140" width="200" height="280" rx="16" fill="rgba(255,255,255,0.1)" transform="rotate(-5 220 280)"/>
  <rect x="140" y="120" width="200" height="280" rx="16" fill="rgba(255,255,255,0.15)" transform="rotate(3 240 260)"/>
  <rect x="156" y="116" width="200" height="280" rx="16" fill="white"/>
  
  <!-- Card Content -->
  <circle cx="256" cy="180" r="24" fill="#8b5cf6"/>
  <rect x="196" y="220" width="120" height="8" rx="4" fill="#e5e7eb"/>
  <rect x="196" y="240" width="80" height="8" rx="4" fill="#e5e7eb"/>
  <rect x="196" y="260" width="100" height="8" rx="4" fill="#e5e7eb"/>
  
  <!-- Sparkle Effects -->
  <circle cx="380" cy="120" r="3" fill="white" opacity="0.8"/>
  <circle cx="420" cy="160" r="2" fill="white" opacity="0.6"/>
  <circle cx="100" cy="180" r="2" fill="white" opacity="0.7"/>
  <circle cx="80" cy="320" r="3" fill="white" opacity="0.5"/>
</svg>
